<svg width="501" height="287" viewBox="0 0 501 287" fill="none" xmlns="http://www.w3.org/2000/svg">
<path d="M31.153 285.757C31.153 285.757 -27.015 217.723 21.3159 144.065C64.1985 78.7105 114.195 83.1778 150.877 109.699C166.5 120.995 211.543 111.091 249.881 44.5911C302.164 -46.0973 483.393 8.90552 450.349 148.432C434.358 215.952 499.015 218.407 466.07 285.9L31.153 285.757Z" fill="#EBF3FA"/>
<path d="M306.082 213.193L310.544 213.992C310.9 214.056 311.214 214.219 311.462 214.445C311.722 214.684 311.909 214.993 311.988 215.33C312.014 215.433 312.028 215.539 312.032 215.646C312.035 215.744 312.03 215.841 312.015 215.94L301.75 283.714C301.618 284.588 300.782 285.178 299.871 285.06C299.841 285.056 299.811 285.051 299.782 285.046L295.32 284.247C295.291 284.242 295.261 284.235 295.232 284.229C294.334 284.023 293.717 283.173 293.849 282.299L304.114 214.525C304.129 214.426 304.153 214.332 304.186 214.24C304.22 214.141 304.265 214.045 304.319 213.956C304.495 213.664 304.762 213.437 305.08 213.302C305.381 213.174 305.727 213.13 306.082 213.193Z" fill="#FFB93E"/>
<path d="M307.223 247.582L301.723 283.891C301.605 284.67 300.782 285.183 299.871 285.061C299.841 285.056 299.811 285.052 299.782 285.047L295.32 284.248C295.291 284.242 295.261 284.236 295.232 284.23C294.333 284.028 293.705 283.255 293.823 282.476L298.647 250.625C301.05 250.533 304.446 249.924 307.223 247.582Z" fill="#FFA412"/>
<path d="M303.126 221.146L303.009 221.916L310.909 223.339L311.026 222.568L303.126 221.146Z" fill="#FFA412"/>
<path d="M302.726 223.74L302.609 224.51L310.509 225.929L310.626 225.158L302.726 223.74Z" fill="#FFA412"/>
<path d="M302.247 226.891L302.13 227.661L310.03 229.082L310.147 228.312L302.247 226.891Z" fill="#FFA412"/>
<path d="M301.531 231.641L301.414 232.412L309.315 233.832L309.431 233.061L301.531 231.641Z" fill="#FFA412"/>
<path d="M300.755 236.701L300.639 237.472L308.539 238.892L308.656 238.121L300.755 236.701Z" fill="#FFA412"/>
<path d="M299.576 244.491L299.46 245.262L307.36 246.68L307.477 245.91L299.576 244.491Z" fill="#FFA412"/>
<path d="M298.483 251.785L298.366 252.556L306.266 253.978L306.383 253.208L298.483 251.785Z" fill="#FFA412"/>
<path d="M297.502 258.251L297.385 259.021L305.285 260.442L305.402 259.671L297.502 258.251Z" fill="#FFA412"/>
<path d="M303.491 218.645L303.374 219.415L311.275 220.833L311.391 220.063L303.491 218.645Z" fill="#FFA412"/>
<path d="M303.74 216.984L303.624 217.754L311.524 219.174L311.641 218.404L303.74 216.984Z" fill="#FFA412"/>
<path d="M303.979 215.421L303.862 216.191L311.763 217.61L311.879 216.84L303.979 215.421Z" fill="#FFA412"/>
<path d="M304.042 215.005L311.942 216.421L312.015 215.939C312.03 215.84 312.035 215.742 312.032 215.645L304.186 214.24C304.153 214.331 304.129 214.425 304.114 214.524L304.042 215.005Z" fill="#FFA412"/>
<path d="M304.319 213.956L311.989 215.33C311.909 214.993 311.722 214.684 311.462 214.445L305.08 213.302C304.762 213.437 304.495 213.665 304.319 213.956Z" fill="#FFA412"/>
<path d="M314.177 213.193L318.638 213.992C318.994 214.056 319.308 214.219 319.556 214.445C319.817 214.684 320.003 214.993 320.083 215.33C320.108 215.433 320.122 215.539 320.126 215.646C320.129 215.744 320.124 215.841 320.109 215.94L309.844 283.714C309.712 284.588 308.876 285.178 307.965 285.06C307.935 285.056 307.906 285.051 307.876 285.046L303.415 284.247C303.385 284.242 303.356 284.235 303.327 284.229C302.428 284.023 301.811 283.173 301.943 282.299L312.209 214.525C312.224 214.426 312.248 214.332 312.28 214.24C312.315 214.141 312.359 214.045 312.414 213.956C312.589 213.664 312.857 213.437 313.174 213.302C313.476 213.174 313.821 213.13 314.177 213.193Z" fill="#FFB93E"/>
<path d="M315.317 247.582L309.818 283.891C309.7 284.67 308.876 285.183 307.965 285.061C307.936 285.056 307.906 285.052 307.876 285.047L303.415 284.248C303.385 284.242 303.356 284.236 303.327 284.23C302.428 284.028 301.799 283.255 301.917 282.476L306.741 250.625C309.144 250.533 312.54 249.924 315.317 247.582Z" fill="#FFA412"/>
<path d="M311.221 221.146L311.104 221.916L319.003 223.339L319.12 222.568L311.221 221.146Z" fill="#FFA412"/>
<path d="M310.829 223.747L310.712 224.518L318.612 225.936L318.729 225.166L310.829 223.747Z" fill="#FFA412"/>
<path d="M310.342 226.891L310.225 227.661L318.125 229.082L318.241 228.312L310.342 226.891Z" fill="#FFA412"/>
<path d="M309.617 231.634L309.5 232.404L317.4 233.824L317.517 233.054L309.617 231.634Z" fill="#FFA412"/>
<path d="M308.849 236.701L308.733 237.472L316.633 238.892L316.75 238.121L308.849 236.701Z" fill="#FFA412"/>
<path d="M307.67 244.523L307.554 245.293L315.453 246.714L315.57 245.944L307.67 244.523Z" fill="#FFA412"/>
<path d="M306.57 251.744L306.453 252.515L314.354 253.935L314.47 253.164L306.57 251.744Z" fill="#FFA412"/>
<path d="M305.588 258.241L305.471 259.012L313.372 260.432L313.488 259.661L305.588 258.241Z" fill="#FFA412"/>
<path d="M311.587 218.675L311.47 219.445L319.369 220.866L319.486 220.096L311.587 218.675Z" fill="#FFA412"/>
<path d="M311.848 217.019L311.731 217.79L319.632 219.208L319.748 218.437L311.848 217.019Z" fill="#FFA412"/>
<path d="M312.073 215.421L311.957 216.191L319.857 217.61L319.974 216.839L312.073 215.421Z" fill="#FFA412"/>
<path d="M312.136 215.005L320.037 216.421L320.11 215.939C320.125 215.84 320.13 215.742 320.126 215.645L312.28 214.24C312.248 214.331 312.224 214.425 312.209 214.524L312.136 215.005Z" fill="#FFA412"/>
<path d="M312.414 213.956L320.083 215.33C320.003 214.993 319.817 214.684 319.556 214.445L313.174 213.302C312.857 213.437 312.589 213.665 312.414 213.956Z" fill="#FFA412"/>
<path d="M284.576 278.259L284.567 283.184C284.566 283.577 284.47 283.941 284.304 284.244C284.13 284.562 283.88 284.812 283.587 284.952C283.497 284.996 283.404 285.028 283.307 285.049C283.22 285.069 283.13 285.079 283.038 285.079L219.983 284.916C219.17 284.914 218.502 284.11 218.462 283.111C218.461 283.079 218.46 283.046 218.46 283.014L218.469 278.088C218.469 278.055 218.47 278.023 218.471 277.99C218.514 276.991 219.185 276.191 219.998 276.193L283.053 276.356C283.145 276.357 283.234 276.367 283.322 276.387C283.418 276.409 283.512 276.442 283.601 276.486C283.893 276.627 284.143 276.878 284.316 277.198C284.481 277.502 284.576 277.866 284.576 278.259Z" fill="#FFB93E"/>
<path d="M253.6 285.002L219.819 284.915C219.094 284.913 218.497 284.11 218.462 283.111C218.461 283.078 218.46 283.045 218.46 283.013L218.469 278.087C218.469 278.055 218.469 278.022 218.47 277.99C218.509 276.991 219.108 276.19 219.834 276.192L249.467 276.269C249.935 278.838 251.032 282.392 253.6 285.002Z" fill="#FFA412"/>
<path d="M276.202 276.346L276.183 285.068L276.899 285.07L276.918 276.348L276.202 276.346Z" fill="#FFA412"/>
<path d="M273.776 276.339L273.757 285.062L274.473 285.064L274.493 276.341L273.776 276.339Z" fill="#FFA412"/>
<path d="M270.845 276.31L270.824 285.032L271.541 285.034L271.562 276.312L270.845 276.31Z" fill="#FFA412"/>
<path d="M266.384 276.298L266.366 285.02L267.082 285.022L267.101 276.299L266.384 276.298Z" fill="#FFA412"/>
<path d="M261.692 276.308L261.673 285.03L262.389 285.032L262.409 276.31L261.692 276.308Z" fill="#FFA412"/>
<path d="M254.463 276.289L254.444 285.012L255.161 285.014L255.18 276.291L254.463 276.289Z" fill="#FFA412"/>
<path d="M247.695 276.272L247.676 284.995L248.393 284.997L248.412 276.274L247.695 276.272Z" fill="#FFA412"/>
<path d="M241.64 276.243L241.619 284.966L242.336 284.968L242.356 276.245L241.64 276.243Z" fill="#FFA412"/>
<path d="M278.511 276.353L278.492 285.075L279.209 285.077L279.228 276.354L278.511 276.353Z" fill="#FFA412"/>
<path d="M280.025 276.346L280.008 285.068L280.725 285.07L280.742 276.348L280.025 276.346Z" fill="#FFA412"/>
<path d="M281.51 276.359L281.491 285.081L282.207 285.083L282.227 276.361L281.51 276.359Z" fill="#FFA412"/>
<path d="M282.605 276.354L282.591 285.076L283.038 285.077C283.13 285.078 283.22 285.067 283.308 285.048L283.322 276.386C283.235 276.365 283.145 276.355 283.053 276.355L282.605 276.354Z" fill="#FFA412"/>
<path d="M283.601 276.484L283.587 284.95C283.88 284.81 284.13 284.56 284.304 284.242L284.316 277.196C284.143 276.877 283.893 276.625 283.601 276.484Z" fill="#FFA412"/>
<path d="M277.848 269.519L277.84 274.445C277.839 274.838 277.742 275.202 277.577 275.505C277.402 275.823 277.153 276.073 276.86 276.213C276.77 276.257 276.676 276.289 276.58 276.31C276.492 276.33 276.403 276.34 276.311 276.34L213.256 276.177C212.443 276.175 211.774 275.371 211.735 274.372C211.734 274.339 211.733 274.307 211.733 274.274L211.741 269.348C211.741 269.316 211.742 269.283 211.743 269.251C211.786 268.252 212.457 267.452 213.27 267.454L276.326 267.617C276.366 267.617 276.407 267.619 276.446 267.624C276.463 267.625 276.481 267.627 276.498 267.63C276.516 267.632 276.536 267.635 276.554 267.64C276.568 267.642 276.581 267.645 276.595 267.648C276.691 267.669 276.784 267.702 276.874 267.746C276.887 267.753 276.9 267.759 276.913 267.767C276.926 267.773 276.939 267.78 276.952 267.788C276.977 267.803 277.003 267.818 277.029 267.834C277.043 267.844 277.058 267.854 277.072 267.865C277.086 267.874 277.099 267.883 277.111 267.893C277.136 267.911 277.159 267.93 277.183 267.95C277.21 267.973 277.236 267.998 277.261 268.023C277.281 268.042 277.3 268.062 277.32 268.083C277.321 268.084 277.322 268.085 277.323 268.087C277.336 268.101 277.35 268.116 277.362 268.13C277.401 268.175 277.438 268.223 277.472 268.272C277.483 268.287 277.493 268.302 277.503 268.317C277.513 268.331 277.522 268.347 277.532 268.363C277.551 268.394 277.571 268.427 277.588 268.459C277.753 268.763 277.849 269.127 277.848 269.519Z" fill="#FFB93E"/>
<path d="M246.873 276.262L213.092 276.175C212.366 276.173 211.77 275.37 211.735 274.37C211.734 274.338 211.733 274.305 211.733 274.273L211.741 269.347C211.741 269.314 211.742 269.282 211.743 269.25C211.782 268.251 212.381 267.45 213.107 267.452L242.738 267.529C242.752 267.6 242.765 267.672 242.78 267.744C243.27 270.293 244.375 273.725 246.873 276.262Z" fill="#FFA412"/>
<path d="M269.45 267.584L269.432 276.307L270.149 276.308L270.167 267.586L269.45 267.584Z" fill="#FFA412"/>
<path d="M267.025 267.578L267.006 276.3L267.723 276.302L267.741 267.579L267.025 267.578Z" fill="#FFA412"/>
<path d="M264.139 267.593L264.12 276.315L264.837 276.317L264.856 267.594L264.139 267.593Z" fill="#FFA412"/>
<path d="M259.68 267.581L259.661 276.304L260.377 276.306L260.397 267.583L259.68 267.581Z" fill="#FFA412"/>
<path d="M254.954 267.561L254.937 276.283L255.654 276.285L255.671 267.563L254.954 267.561Z" fill="#FFA412"/>
<path d="M247.724 267.537L247.703 276.26L248.419 276.262L248.44 267.539L247.724 267.537Z" fill="#FFA412"/>
<path d="M240.967 267.532L240.948 276.254L241.665 276.256L241.684 267.534L240.967 267.532Z" fill="#FFA412"/>
<path d="M234.913 267.509L234.897 276.231L235.613 276.233L235.63 267.51L234.913 267.509Z" fill="#FFA412"/>
<path d="M271.759 267.59L271.741 276.313L272.458 276.315L272.476 267.592L271.759 267.59Z" fill="#FFA412"/>
<path d="M273.309 267.616L273.29 276.338L274.006 276.34L274.025 267.618L273.309 267.616Z" fill="#FFA412"/>
<path d="M274.782 267.621L274.763 276.343L275.48 276.345L275.499 267.623L274.782 267.621Z" fill="#FFA412"/>
<path d="M275.878 267.616L275.863 276.339L276.311 276.34C276.403 276.34 276.492 276.329 276.58 276.31L276.595 267.648C276.507 267.628 276.418 267.617 276.326 267.617L275.878 267.616Z" fill="#FFA412"/>
<path d="M276.874 267.746L276.859 276.212C277.152 276.072 277.402 275.822 277.577 275.504L277.588 268.458C277.415 268.139 277.166 267.887 276.874 267.746Z" fill="#FFA412"/>
<path d="M281.12 261.019L281.112 265.945C281.111 266.338 281.014 266.701 280.849 267.004C280.674 267.323 280.424 267.573 280.132 267.713C280.042 267.757 279.949 267.789 279.852 267.81C279.765 267.83 279.675 267.84 279.583 267.84L216.528 267.676C216.275 267.676 216.035 267.598 215.825 267.46C215.379 267.168 215.061 266.609 215.012 265.957C215.009 265.928 215.007 265.9 215.007 265.872C215.006 265.84 215.005 265.807 215.005 265.774L215.013 260.848C215.013 260.816 215.014 260.783 215.015 260.751C215.058 259.752 215.729 258.952 216.542 258.954L279.598 259.117C279.69 259.117 279.779 259.128 279.867 259.148C279.963 259.169 280.056 259.202 280.146 259.246C280.438 259.388 280.687 259.639 280.86 259.959C281.025 260.262 281.121 260.627 281.12 261.019Z" fill="#FFB93E"/>
<path d="M250.145 267.764L216.364 267.677C216.138 267.676 215.925 267.598 215.737 267.46C215.339 267.168 215.055 266.609 215.012 265.957C215.009 265.929 215.007 265.901 215.007 265.872C215.006 265.84 215.005 265.807 215.005 265.775L215.013 260.849C215.013 260.816 215.014 260.784 215.015 260.751C215.054 259.752 215.653 258.952 216.379 258.954L246.012 259.031C246.468 261.529 247.518 264.96 249.938 267.548C250.006 267.621 250.075 267.692 250.145 267.764Z" fill="#FFA412"/>
<path d="M282.645 252.301L282.637 257.227C282.636 257.619 282.54 257.983 282.374 258.286C282.2 258.605 281.95 258.855 281.657 258.995C281.567 259.039 281.474 259.071 281.377 259.092C281.29 259.111 281.2 259.122 281.108 259.121L218.053 258.958C217.24 258.956 216.571 258.153 216.532 257.154C216.531 257.121 216.53 257.089 216.53 257.056L216.539 252.13C216.539 252.098 216.539 252.065 216.541 252.033C216.58 251.108 217.157 250.355 217.887 250.249C217.946 250.24 218.006 250.236 218.068 250.236L281.123 250.399C281.215 250.399 281.304 250.41 281.392 250.43C281.488 250.451 281.582 250.484 281.671 250.528C281.963 250.67 282.213 250.921 282.386 251.241C282.55 251.544 282.646 251.908 282.645 252.301Z" fill="#FFB93E"/>
<path d="M251.67 259.044L217.889 258.957C217.164 258.955 216.567 258.152 216.532 257.153C216.531 257.12 216.53 257.087 216.53 257.055L216.538 252.129C216.538 252.097 216.539 252.064 216.54 252.031C216.576 251.108 217.091 250.354 217.743 250.248C217.795 250.238 217.849 250.234 217.904 250.234L247.536 250.311C247.537 250.315 247.538 250.321 247.539 250.325C248.009 252.891 249.107 256.438 251.67 259.044Z" fill="#FFA412"/>
<path d="M278.024 243.579L278.016 248.505C278.015 248.898 277.918 249.262 277.752 249.564C277.578 249.883 277.328 250.133 277.035 250.273C276.946 250.317 276.852 250.349 276.756 250.37C276.727 250.376 276.697 250.382 276.667 250.386C276.651 250.389 276.634 250.391 276.618 250.392C276.602 250.395 276.585 250.396 276.568 250.397C276.541 250.399 276.514 250.4 276.487 250.4L213.432 250.237C212.618 250.234 211.95 249.431 211.911 248.432C211.91 248.4 211.909 248.367 211.909 248.334L211.917 243.409C211.917 243.376 211.918 243.343 211.919 243.311C211.92 243.284 211.922 243.257 211.923 243.231C211.985 242.428 212.455 241.765 213.07 241.572C213.085 241.567 213.101 241.563 213.116 241.558C213.222 241.529 213.333 241.514 213.446 241.514L276.501 241.677C276.548 241.677 276.593 241.681 276.638 241.685C276.658 241.688 276.678 241.69 276.699 241.693H276.7C276.723 241.698 276.747 241.703 276.77 241.708C276.866 241.73 276.96 241.762 277.049 241.807C277.342 241.948 277.591 242.199 277.764 242.519C277.929 242.823 278.024 243.187 278.024 243.579Z" fill="#FFB93E"/>
<path d="M247.049 250.324L213.268 250.237C212.542 250.235 211.946 249.431 211.911 248.432C211.91 248.4 211.909 248.367 211.909 248.335L211.917 243.409C211.917 243.377 211.918 243.344 211.919 243.311C211.92 243.284 211.922 243.258 211.923 243.232C211.979 242.41 212.417 241.738 212.983 241.561C213.002 241.553 213.021 241.548 213.041 241.544C213.119 241.524 213.2 241.514 213.282 241.514L242.915 241.591C242.918 241.612 242.923 241.632 242.927 241.653C243.401 244.212 244.498 247.722 247.035 250.31C247.04 250.315 247.045 250.32 247.049 250.324Z" fill="#FFA412"/>
<path d="M277.906 234.918L277.898 239.844C277.897 240.236 277.8 240.6 277.635 240.903C277.46 241.222 277.21 241.471 276.917 241.612C276.848 241.646 276.774 241.673 276.7 241.693H276.698C276.678 241.699 276.658 241.704 276.638 241.708C276.55 241.728 276.461 241.738 276.369 241.738L213.313 241.575C213.247 241.575 213.18 241.57 213.116 241.558C213.091 241.555 213.065 241.549 213.041 241.543C212.356 241.387 211.827 240.655 211.792 239.77C211.792 239.738 211.791 239.705 211.791 239.673L211.799 234.747C211.799 234.714 211.8 234.682 211.801 234.649C211.844 233.65 212.515 232.85 213.328 232.853L276.383 233.016C276.424 233.016 276.464 233.018 276.504 233.022C276.521 233.024 276.538 233.026 276.555 233.028C276.574 233.031 276.593 233.034 276.612 233.038C276.625 233.04 276.639 233.043 276.652 233.047C276.749 233.068 276.842 233.101 276.931 233.145C276.945 233.151 276.957 233.158 276.971 233.165C276.983 233.171 276.997 233.179 277.01 233.186C277.036 233.201 277.061 233.217 277.086 233.233C277.114 233.252 277.142 233.27 277.169 233.291C277.193 233.31 277.217 233.328 277.24 233.348C277.267 233.371 277.293 233.396 277.318 233.421C277.339 233.44 277.358 233.46 277.378 233.481C277.378 233.482 277.38 233.483 277.381 233.485C277.394 233.499 277.407 233.514 277.42 233.528C277.458 233.573 277.495 233.621 277.53 233.67C277.541 233.685 277.551 233.7 277.56 233.715C277.57 233.73 277.579 233.745 277.589 233.761C277.609 233.792 277.628 233.825 277.646 233.858C277.811 234.161 277.907 234.525 277.906 234.918Z" fill="#FFB93E"/>
<path d="M246.931 241.663L213.15 241.575C213.123 241.575 213.096 241.574 213.069 241.572C213.04 241.57 213.011 241.565 212.983 241.56C212.334 241.447 211.825 240.692 211.792 239.771C211.792 239.738 211.791 239.706 211.791 239.673L211.799 234.747C211.799 234.715 211.8 234.682 211.801 234.65C211.84 233.651 212.438 232.851 213.164 232.853L242.796 232.929C242.809 233 242.823 233.072 242.837 233.144C243.324 235.672 244.415 239.068 246.87 241.6C246.89 241.622 246.911 241.641 246.931 241.663Z" fill="#FFA412"/>
<path d="M281.178 226.42L281.17 231.346C281.169 231.738 281.072 232.102 280.907 232.405C280.732 232.723 280.483 232.973 280.189 233.113C280.1 233.157 280.006 233.189 279.91 233.21C279.822 233.23 279.733 233.24 279.641 233.24L216.586 233.077C216.332 233.076 216.093 232.998 215.882 232.86C215.437 232.568 215.119 232.009 215.069 231.357C215.067 231.329 215.065 231.301 215.065 231.272C215.064 231.24 215.063 231.207 215.063 231.175L215.071 226.249C215.071 226.216 215.072 226.184 215.073 226.151C215.116 225.152 215.787 224.352 216.6 224.354L279.655 224.517C279.748 224.518 279.837 224.528 279.925 224.548C280.021 224.57 280.114 224.602 280.204 224.647C280.496 224.788 280.745 225.039 280.918 225.359C281.083 225.663 281.178 226.027 281.178 226.42Z" fill="#FFB93E"/>
<path d="M250.203 233.163L216.422 233.076C216.196 233.075 215.983 232.997 215.795 232.859C215.396 232.568 215.113 232.009 215.069 231.357C215.067 231.329 215.065 231.3 215.065 231.272C215.064 231.239 215.063 231.207 215.063 231.174L215.071 226.248C215.071 226.216 215.072 226.183 215.073 226.151C215.112 225.152 215.711 224.352 216.436 224.354L246.069 224.43C246.526 226.929 247.576 230.36 249.996 232.948C250.064 233.021 250.133 233.092 250.203 233.163Z" fill="#FFA412"/>
<path d="M286.345 217.711L286.337 222.637C286.337 223.029 286.24 223.393 286.074 223.696C285.9 224.014 285.65 224.264 285.357 224.404C285.267 224.448 285.174 224.48 285.078 224.501C284.99 224.521 284.9 224.531 284.808 224.531L221.753 224.368C220.94 224.366 220.272 223.562 220.232 222.563C220.231 222.531 220.23 222.498 220.23 222.466L220.239 217.54C220.239 217.507 220.24 217.475 220.241 217.442C220.28 216.519 220.857 215.765 221.587 215.659C221.646 215.65 221.707 215.646 221.768 215.646L284.823 215.809C284.915 215.809 285.004 215.82 285.092 215.84C285.188 215.861 285.282 215.894 285.371 215.938C285.663 216.079 285.913 216.331 286.086 216.65C286.25 216.954 286.346 217.318 286.345 217.711Z" fill="#FFB93E"/>
<path d="M255.371 224.455L221.589 224.367C220.864 224.365 220.267 223.562 220.232 222.563C220.231 222.53 220.23 222.498 220.23 222.465L220.239 217.539C220.239 217.507 220.239 217.474 220.24 217.442C220.276 216.518 220.791 215.764 221.443 215.658C221.495 215.649 221.549 215.645 221.604 215.645L251.237 215.721C251.237 215.726 251.238 215.731 251.239 215.735C251.709 218.303 252.807 221.849 255.371 224.455Z" fill="#FFA412"/>
<path d="M278.082 208.98L278.073 213.906C278.073 214.299 277.976 214.663 277.81 214.965C277.636 215.284 277.386 215.534 277.093 215.674C277.004 215.718 276.91 215.75 276.814 215.771C276.784 215.777 276.755 215.783 276.725 215.787C276.702 215.792 276.678 215.793 276.654 215.795C276.643 215.796 276.631 215.798 276.619 215.799C276.594 215.8 276.57 215.801 276.545 215.801L213.489 215.637C212.676 215.635 212.008 214.832 211.968 213.833C211.967 213.801 211.967 213.768 211.967 213.735L211.975 208.809C211.975 208.777 211.976 208.744 211.977 208.712C212.02 207.713 212.691 206.913 213.504 206.915L276.559 207.078C276.586 207.078 276.613 207.079 276.64 207.081C276.704 207.086 276.767 207.095 276.828 207.109C276.924 207.13 277.018 207.163 277.107 207.208C277.153 207.23 277.197 207.254 277.239 207.281C277.267 207.298 277.293 207.315 277.318 207.334C277.321 207.335 277.324 207.337 277.326 207.34C277.352 207.359 277.378 207.379 277.403 207.4C277.408 207.404 277.412 207.408 277.415 207.411C277.439 207.43 277.462 207.451 277.484 207.473C277.538 207.524 277.588 207.578 277.635 207.638C277.65 207.656 277.665 207.675 277.678 207.694C277.681 207.697 277.683 207.7 277.686 207.705C277.695 207.716 277.703 207.728 277.712 207.74C277.714 207.742 277.715 207.745 277.717 207.748C277.732 207.77 277.747 207.793 277.761 207.817C277.782 207.851 277.802 207.884 277.822 207.92C277.987 208.224 278.082 208.588 278.082 208.98Z" fill="#FFB93E"/>
<path d="M247.107 215.725L213.325 215.638C212.6 215.636 212.003 214.833 211.968 213.834C211.967 213.801 211.967 213.768 211.967 213.736L211.975 208.81C211.975 208.778 211.976 208.745 211.977 208.712C212.016 207.714 212.615 206.913 213.34 206.915L242.973 206.992C242.985 207.058 242.997 207.125 243.011 207.193C243.499 209.739 244.601 213.169 247.093 215.711C247.097 215.715 247.102 215.721 247.107 215.725Z" fill="#FFA412"/>
<path d="M282.732 200.471L282.724 205.397C282.723 205.79 282.626 206.154 282.46 206.456C282.286 206.775 282.036 207.025 281.743 207.165C281.654 207.209 281.56 207.241 281.464 207.262C281.376 207.282 281.287 207.292 281.195 207.292L218.139 207.129C217.895 207.128 217.663 207.055 217.458 206.925C216.999 206.638 216.671 206.067 216.623 205.402C216.621 205.376 216.619 205.35 216.619 205.324C216.618 205.292 216.617 205.259 216.617 205.226L216.625 200.301C216.625 200.268 216.626 200.235 216.627 200.203C216.666 199.278 217.244 198.525 217.973 198.42C218.033 198.41 218.092 198.406 218.154 198.406L281.21 198.569C281.302 198.569 281.391 198.58 281.479 198.6C281.575 198.622 281.668 198.654 281.758 198.699C282.05 198.84 282.299 199.091 282.472 199.411C282.637 199.715 282.732 200.079 282.732 200.471Z" fill="#FFB93E"/>
<path d="M251.757 207.216L217.975 207.129C217.757 207.128 217.55 207.055 217.368 206.926C216.958 206.638 216.666 206.068 216.622 205.402C216.621 205.377 216.619 205.351 216.618 205.325C216.617 205.292 216.617 205.26 216.617 205.227L216.625 200.301C216.625 200.269 216.626 200.236 216.627 200.204C216.662 199.28 217.178 198.526 217.829 198.419C217.882 198.41 217.935 198.406 217.99 198.406L247.623 198.483C247.624 198.487 247.625 198.492 247.625 198.496C248.083 200.998 249.138 204.429 251.563 207.014C251.626 207.083 251.691 207.15 251.757 207.216Z" fill="#FFA412"/>
<path d="M278.11 191.75L278.102 196.676C278.101 197.068 278.005 197.432 277.839 197.735C277.665 198.054 277.415 198.304 277.122 198.444C277.032 198.487 276.939 198.52 276.843 198.541C276.813 198.547 276.783 198.553 276.754 198.557C276.738 198.559 276.721 198.561 276.704 198.563C276.688 198.565 276.671 198.566 276.654 198.567C276.627 198.569 276.6 198.57 276.573 198.57L213.518 198.407C212.705 198.405 212.037 197.602 211.997 196.603C211.996 196.57 211.995 196.537 211.995 196.505L212.004 191.579C212.004 191.547 212.005 191.514 212.006 191.481C212.049 190.483 212.719 189.682 213.532 189.685L276.588 189.848C276.68 189.848 276.769 189.859 276.857 189.879C276.953 189.9 277.046 189.933 277.136 189.977C277.428 190.118 277.678 190.37 277.851 190.689C278.016 190.993 278.111 191.358 278.11 191.75Z" fill="#FFB93E"/>
<path d="M247.136 198.494L213.354 198.407C212.629 198.405 212.032 197.602 211.997 196.603C211.996 196.571 211.995 196.538 211.995 196.505L212.004 191.58C212.004 191.547 212.005 191.514 212.006 191.482C212.044 190.483 212.644 189.683 213.369 189.685L243.002 189.761C243.47 192.326 244.564 195.872 247.122 198.481C247.126 198.485 247.131 198.49 247.136 198.494Z" fill="#FFA412"/>
<path d="M272.747 259.105L272.727 267.828L273.444 267.83L273.463 259.107L272.747 259.105Z" fill="#FFA412"/>
<path d="M270.31 259.091L270.293 267.813L271.009 267.815L271.026 259.093L270.31 259.091Z" fill="#FFA412"/>
<path d="M267.392 259.075L267.375 267.798L268.092 267.799L268.108 259.077L267.392 259.075Z" fill="#FFA412"/>
<path d="M262.952 259.08L262.933 267.803L263.65 267.805L263.669 259.082L262.952 259.08Z" fill="#FFA412"/>
<path d="M258.237 259.069L258.218 267.792L258.935 267.793L258.954 259.071L258.237 259.069Z" fill="#FFA412"/>
<path d="M251.008 259.05L250.989 267.772L251.705 267.774L251.724 259.052L251.008 259.05Z" fill="#FFA412"/>
<path d="M244.229 259.023L244.212 267.746L244.929 267.747L244.946 259.025L244.229 259.023Z" fill="#FFA412"/>
<path d="M238.196 259.016L238.177 267.738L238.893 267.74L238.912 259.018L238.196 259.016Z" fill="#FFA412"/>
<path d="M275.056 259.112L275.037 267.834L275.753 267.836L275.772 259.113L275.056 259.112Z" fill="#FFA412"/>
<path d="M276.57 259.107L276.553 267.83L277.27 267.831L277.287 259.109L276.57 259.107Z" fill="#FFA412"/>
<path d="M278.055 259.119L278.035 267.842L278.752 267.844L278.771 259.121L278.055 259.119Z" fill="#FFA412"/>
<path d="M279.15 259.114L279.136 267.837L279.583 267.838C279.675 267.838 279.765 267.828 279.852 267.808L279.867 259.146C279.779 259.126 279.69 259.116 279.598 259.115L279.15 259.114Z" fill="#FFA412"/>
<path d="M280.146 259.245L280.132 267.712C280.424 267.572 280.675 267.322 280.849 267.003L280.861 259.957C280.687 259.638 280.438 259.386 280.146 259.245Z" fill="#FFA412"/>
<path d="M252.533 250.33L252.514 259.053L253.23 259.055L253.25 250.332L252.533 250.33Z" fill="#FFA412"/>
<path d="M245.742 250.292L245.724 259.015L246.441 259.016L246.459 250.294L245.742 250.292Z" fill="#FFA412"/>
<path d="M239.721 250.297L239.702 259.02L240.419 259.022L240.438 250.299L239.721 250.297Z" fill="#FFA412"/>
<path d="M277.27 259.11L277.285 250.387L276.656 250.385C276.69 250.381 276.723 250.376 276.756 250.368L276.771 241.707C276.727 241.697 276.682 241.689 276.638 241.684L276.652 233.232L276.931 233.232L276.917 241.611C277.21 241.472 277.46 241.221 277.634 240.903L277.646 233.857C277.503 233.593 277.306 233.38 277.078 233.233L277.329 233.233L277.343 224.511L276.626 224.509L276.612 233.04C276.537 233.025 276.462 233.016 276.383 233.016L275.936 233.014L275.921 241.737L276.054 241.737L276.039 250.397L276.487 250.399C276.515 250.399 276.541 250.396 276.568 250.394L276.554 259.108L277.27 259.11Z" fill="#FFA412"/>
<path d="M278.107 250.397L278.087 259.119L278.804 259.121L278.823 250.398L278.107 250.397Z" fill="#FFA412"/>
<path d="M279.566 250.388L279.546 259.111L280.262 259.113L280.283 250.39L279.566 250.388Z" fill="#FFA412"/>
<path d="M280.675 250.396L280.66 259.118L281.108 259.119C281.2 259.119 281.289 259.109 281.377 259.089L281.392 250.428C281.304 250.407 281.215 250.397 281.123 250.397L280.675 250.396Z" fill="#FFA412"/>
<path d="M281.671 250.526L281.657 258.993C281.95 258.853 282.2 258.603 282.374 258.284L282.386 251.239C282.212 250.919 281.963 250.668 281.671 250.526Z" fill="#FFA412"/>
<path d="M270.34 250.383L270.354 241.661L270.222 241.661L270.236 233L269.519 232.999L269.505 241.721L269.638 241.722L269.623 250.368L268.924 250.366L268.909 259.089L269.626 259.09L269.641 250.382L270.34 250.383Z" fill="#FFA412"/>
<path d="M265.02 241.647L264.887 241.646L264.901 232.986L264.185 232.984L264.17 241.707L264.303 241.707L264.288 250.367L264.465 250.368L264.45 259.076L265.167 259.078L265.182 250.356L265.005 250.356L265.02 241.647Z" fill="#FFA412"/>
<path d="M277.049 241.805L277.035 250.272C277.328 250.132 277.578 249.882 277.752 249.563L277.764 242.518C277.591 242.198 277.342 241.947 277.049 241.805Z" fill="#FFA412"/>
<path d="M260.442 232.974L259.726 232.972L259.711 241.695L259.844 241.695L259.829 250.342L259.75 250.341L259.735 259.064L260.452 259.066L260.467 250.357L260.546 250.357L260.56 241.635L260.428 241.634L260.442 232.974Z" fill="#FFA412"/>
<path d="M255.727 232.963L255.011 232.961L254.996 241.683L255.129 241.684L255.114 250.344L255.831 250.346L255.845 241.623L255.713 241.623L255.727 232.963Z" fill="#FFA412"/>
<path d="M248.499 232.944L247.782 232.942L247.767 241.665L247.9 241.665L247.885 250.325L248.602 250.327L248.616 241.604L248.484 241.604L248.499 232.944Z" fill="#FFA412"/>
<path d="M241.73 232.926L241.013 232.925L240.999 241.647L241.131 241.647L241.117 250.308L241.834 250.31L241.848 241.587L241.716 241.587L241.73 232.926Z" fill="#FFA412"/>
<path d="M235.687 232.911L234.97 232.909L234.955 241.631L235.088 241.631L235.073 250.292L235.79 250.294L235.805 241.571L235.672 241.571L235.687 232.911Z" fill="#FFA412"/>
<path d="M272.545 233.006L271.829 233.005L271.814 241.727L271.947 241.727L271.932 250.374H271.833L271.819 259.096L272.535 259.098L272.55 250.389L272.649 250.389L272.664 241.667L272.531 241.667L272.545 233.006Z" fill="#FFA412"/>
<path d="M274.071 233.01L273.494 233.008L273.508 224.501L272.792 224.499L272.777 233.222L273.354 233.223L273.34 241.73L273.472 241.731L273.458 250.391L274.174 250.393L274.189 241.67L274.056 241.67L274.071 233.01Z" fill="#FFA412"/>
<path d="M270.379 224.5L270.359 233.222L271.076 233.224L271.095 224.502L270.379 224.5Z" fill="#FFA412"/>
<path d="M267.443 232.992L267.094 232.991L267.079 241.714L267.212 241.714L267.197 250.374L267.914 250.376L267.928 241.653L267.796 241.653L267.81 233.208L268.159 233.209L268.174 224.487L267.457 224.485L267.443 232.992Z" fill="#FFA412"/>
<path d="M262.989 224.462L262.968 233.184L263.685 233.186L263.706 224.464L262.989 224.462Z" fill="#FFA412"/>
<path d="M258.295 224.468L258.276 233.19L258.993 233.192L259.012 224.47L258.295 224.468Z" fill="#FFA412"/>
<path d="M251.043 224.43L251.025 233.152L251.741 233.154L251.76 224.432L251.043 224.43Z" fill="#FFA412"/>
<path d="M244.279 224.418L244.262 233.14L244.979 233.142L244.996 224.419L244.279 224.418Z" fill="#FFA412"/>
<path d="M238.254 224.416L238.235 233.139L238.951 233.141L238.97 224.418L238.254 224.416Z" fill="#FFA412"/>
<path d="M275.087 233.013L274.827 233.012L274.813 241.734L274.945 241.735L274.931 250.382L274.259 250.38L274.245 259.102L274.961 259.104L274.976 250.395L275.648 250.397L275.662 241.674L275.53 241.674L275.543 233.229L275.803 233.23L275.818 224.507L275.101 224.505L275.087 233.013Z" fill="#FFA412"/>
<path d="M278.112 224.519L278.093 233.241L278.81 233.243L278.829 224.52L278.112 224.519Z" fill="#FFA412"/>
<path d="M279.91 233.209L279.925 224.547C279.837 224.527 279.748 224.516 279.656 224.516L279.208 224.515L279.193 233.237L279.641 233.239C279.733 233.239 279.822 233.228 279.91 233.209Z" fill="#FFA412"/>
<path d="M280.907 232.403L280.919 225.358C280.746 225.038 280.496 224.787 280.204 224.646L280.19 233.112C280.483 232.972 280.732 232.722 280.907 232.403Z" fill="#FFA412"/>
<path d="M277.972 215.795L277.953 224.518L278.67 224.52L278.689 215.797L277.972 215.795Z" fill="#FFA412"/>
<path d="M268.178 215.771L268.159 224.493L268.875 224.495L268.894 215.773L268.178 215.771Z" fill="#FFA412"/>
<path d="M263.463 215.759L263.443 224.482L264.16 224.484L264.179 215.761L263.463 215.759Z" fill="#FFA412"/>
<path d="M256.234 215.739L256.214 224.461L256.931 224.463L256.95 215.741L256.234 215.739Z" fill="#FFA412"/>
<path d="M249.465 215.721L249.446 224.444L250.163 224.446L250.182 215.723L249.465 215.721Z" fill="#FFA412"/>
<path d="M243.411 215.699L243.394 224.422L244.111 224.424L244.128 215.701L243.411 215.699Z" fill="#FFA412"/>
<path d="M280.282 215.801L280.262 224.524L280.979 224.526L280.998 215.803L280.282 215.801Z" fill="#FFA412"/>
<path d="M281.807 215.806L281.788 224.529L282.504 224.531L282.524 215.808L281.807 215.806Z" fill="#FFA412"/>
<path d="M283.255 215.791L283.236 224.514L283.953 224.515L283.971 215.793L283.255 215.791Z" fill="#FFA412"/>
<path d="M284.375 215.806L284.361 224.528L284.809 224.529C284.901 224.53 284.99 224.519 285.078 224.499L285.092 215.838C285.005 215.818 284.915 215.807 284.823 215.807L284.375 215.806Z" fill="#FFA412"/>
<path d="M285.371 215.937L285.357 224.403C285.65 224.263 285.9 224.013 286.075 223.695L286.086 216.649C285.913 216.329 285.664 216.078 285.371 215.937Z" fill="#FFA412"/>
<path d="M269.681 215.782L270.398 215.784L270.412 207.061L269.713 207.059L269.727 198.551L270.426 198.553L270.441 189.831L269.724 189.829L269.71 198.538L269.011 198.536L268.996 207.259L269.695 207.26L269.681 215.782Z" fill="#FFA412"/>
<path d="M267.261 207.042L267.24 215.765L267.956 215.767L267.977 207.045L267.261 207.042Z" fill="#FFA412"/>
<path d="M255.198 207.028L255.179 215.751L255.896 215.753L255.915 207.03L255.198 207.028Z" fill="#FFA412"/>
<path d="M247.947 206.992L247.929 215.714L248.645 215.716L248.663 206.994L247.947 206.992Z" fill="#FFA412"/>
<path d="M241.201 206.992L241.182 215.714L241.898 215.716L241.918 206.994L241.201 206.992Z" fill="#FFA412"/>
<path d="M235.136 206.959L235.117 215.682L235.834 215.683L235.853 206.961L235.136 206.959Z" fill="#FFA412"/>
<path d="M271.99 215.788L272.624 215.789L272.61 224.498L273.327 224.5L273.341 215.778L272.707 215.776L272.721 207.067L272.622 207.067L272.636 198.559L272.736 198.56L272.75 189.837L272.033 189.835L272.019 198.544L271.92 198.544L271.905 207.266L272.004 207.267L271.99 215.788Z" fill="#FFA412"/>
<path d="M273.519 207.06L273.505 215.782L274.221 215.784L274.236 207.061L273.519 207.06Z" fill="#FFA412"/>
<path d="M277.231 207.28L277.357 207.28L277.371 198.558L276.743 198.556C276.776 198.552 276.81 198.547 276.843 198.539L276.857 189.878C276.769 189.857 276.68 189.847 276.588 189.847L276.14 189.846L276.126 198.568L276.573 198.569C276.601 198.569 276.628 198.567 276.655 198.565L276.64 207.081C276.613 207.08 276.587 207.077 276.559 207.077L276.111 207.076L276.097 215.784L275.705 215.784L275.72 207.075L275.048 207.073L275.062 198.565L275.734 198.567L275.749 189.845L275.032 189.843L275.018 198.552L274.346 198.55L274.331 207.272L275.003 207.274L274.989 215.795L275.534 215.797L275.519 224.506L276.236 224.508L276.25 215.799L276.545 215.799C276.637 215.8 276.726 215.789 276.814 215.77L276.828 207.279L277.107 207.28L277.093 215.673C277.386 215.533 277.636 215.283 277.81 214.964L277.822 207.919C277.674 207.646 277.469 207.427 277.231 207.28Z" fill="#FFA412"/>
<path d="M252.609 198.493L252.592 207.215L253.308 207.217L253.325 198.495L252.609 198.493Z" fill="#FFA412"/>
<path d="M245.851 198.482L245.832 207.204L246.549 207.206L246.568 198.483L245.851 198.482Z" fill="#FFA412"/>
<path d="M239.807 198.468L239.788 207.19L240.505 207.192L240.524 198.47L239.807 198.468Z" fill="#FFA412"/>
<path d="M278.168 198.549L278.15 207.271L278.866 207.273L278.885 198.551L278.168 198.549Z" fill="#FFA412"/>
<path d="M279.666 198.57L279.647 207.292L280.363 207.294L280.382 198.571L279.666 198.57Z" fill="#FFA412"/>
<path d="M280.762 198.566L280.747 207.289L281.195 207.29C281.287 207.29 281.376 207.28 281.464 207.26L281.478 198.598C281.391 198.578 281.301 198.568 281.209 198.567L280.762 198.566Z" fill="#FFA412"/>
<path d="M282.46 206.454L282.472 199.409C282.299 199.089 282.05 198.838 281.758 198.696L281.743 207.163C282.036 207.023 282.286 206.773 282.46 206.454Z" fill="#FFA412"/>
<path d="M267.311 189.828L267.291 198.551L268.008 198.553L268.027 189.83L267.311 189.828Z" fill="#FFA412"/>
<path d="M265.106 189.818L264.389 189.816L264.375 198.539L264.551 198.539L264.538 207.047L264.361 207.046L264.346 215.769L265.063 215.771L265.077 207.249L265.254 207.25L265.268 198.527L265.091 198.527L265.106 189.818Z" fill="#FFA412"/>
<path d="M259.916 198.513L259.836 198.512L259.822 207.235L259.901 207.235L259.887 215.756L260.604 215.758L260.618 207.036L260.539 207.035L260.553 198.528L260.632 198.528L260.647 189.806L259.93 189.804L259.916 198.513Z" fill="#FFA412"/>
<path d="M255.227 189.798L255.208 198.521L255.925 198.522L255.944 189.8L255.227 189.798Z" fill="#FFA412"/>
<path d="M247.998 189.779L247.979 198.501L248.695 198.503L248.715 189.781L247.998 189.779Z" fill="#FFA412"/>
<path d="M241.218 189.752L241.197 198.475L241.914 198.477L241.935 189.755L241.218 189.752Z" fill="#FFA412"/>
<path d="M235.176 189.74L235.159 198.462L235.876 198.464L235.893 189.741L235.176 189.74Z" fill="#FFA412"/>
<path d="M273.55 189.829L273.529 198.552L274.246 198.554L274.266 189.831L273.55 189.829Z" fill="#FFA412"/>
<path d="M277.136 189.977L277.122 198.443C277.415 198.304 277.665 198.054 277.839 197.735L277.851 190.689C277.678 190.37 277.428 190.118 277.136 189.977Z" fill="#FFA412"/>
<path d="M298.145 213.231L302.598 214.092C302.952 214.161 303.265 214.328 303.51 214.558C303.768 214.8 303.95 215.112 304.026 215.45C304.051 215.553 304.063 215.66 304.065 215.766C304.068 215.864 304.062 215.962 304.046 216.06L292.985 283.686C292.843 284.558 292 285.136 291.091 285.005C291.061 285.001 291.031 284.996 291.002 284.99L286.55 284.129C286.52 284.123 286.491 284.116 286.462 284.11C285.566 283.891 284.959 283.032 285.102 282.161L296.162 214.535C296.169 214.491 296.178 214.448 296.189 214.407C296.193 214.389 296.198 214.37 296.204 214.352C296.209 214.333 296.215 214.313 296.222 214.294C296.226 214.28 296.232 214.266 296.237 214.252C296.273 214.152 296.319 214.057 296.374 213.969C296.382 213.956 296.39 213.944 296.399 213.93C296.407 213.918 296.416 213.904 296.425 213.892C296.443 213.868 296.461 213.842 296.48 213.818C296.491 213.804 296.503 213.79 296.515 213.776C296.526 213.763 296.536 213.751 296.548 213.74C296.568 213.716 296.59 213.694 296.611 213.673C296.637 213.648 296.663 213.624 296.69 213.601C296.711 213.583 296.733 213.565 296.755 213.548C296.756 213.548 296.757 213.546 296.759 213.545C296.774 213.534 296.79 213.522 296.805 213.511C296.852 213.478 296.902 213.446 296.952 213.418C296.968 213.409 296.983 213.4 296.998 213.393C297.013 213.385 297.029 213.377 297.044 213.369C297.076 213.354 297.109 213.339 297.141 213.326C297.445 213.201 297.791 213.162 298.145 213.231Z" fill="#FFB93E"/>
<path d="M298.882 247.631L292.956 283.861C292.829 284.639 292 285.139 291.09 285.004C291.061 285 291.031 284.995 291.002 284.989L286.549 284.128C286.52 284.122 286.491 284.116 286.462 284.109C285.565 283.894 284.945 283.114 285.073 282.335L290.27 250.555C290.337 250.553 290.404 250.551 290.472 250.549C292.862 250.464 296.155 249.872 298.882 247.631Z" fill="#FFA412"/>
<path d="M295.067 221.133L294.941 221.901L302.823 223.434L302.949 222.666L295.067 221.133Z" fill="#FFA412"/>
<path d="M294.642 223.731L294.517 224.5L302.399 226.028L302.525 225.26L294.642 223.731Z" fill="#FFA412"/>
<path d="M294.136 226.832L294.01 227.601L301.893 229.13L302.019 228.362L294.136 226.832Z" fill="#FFA412"/>
<path d="M293.354 231.614L293.228 232.383L301.111 233.913L301.236 233.144L293.354 231.614Z" fill="#FFA412"/>
<path d="M292.522 236.69L292.397 237.458L300.28 238.987L300.405 238.218L292.522 236.69Z" fill="#FFA412"/>
<path d="M291.287 244.443L291.161 245.212L299.044 246.743L299.17 245.974L291.287 244.443Z" fill="#FFA412"/>
<path d="M290.067 251.701L289.941 252.47L297.824 253.998L297.949 253.229L290.067 251.701Z" fill="#FFA412"/>
<path d="M289.018 258.2L288.892 258.968L296.774 260.501L296.9 259.732L289.018 258.2Z" fill="#FFA412"/>
<path d="M295.476 218.635L295.351 219.403L303.233 220.933L303.359 220.165L295.476 218.635Z" fill="#FFA412"/>
<path d="M295.773 217.017L295.647 217.785L303.53 219.316L303.656 218.547L295.773 217.017Z" fill="#FFA412"/>
<path d="M296.002 215.419L295.877 216.188L303.759 217.718L303.885 216.949L296.002 215.419Z" fill="#FFA412"/>
<path d="M296.083 215.015L303.967 216.541L304.045 216.06C304.061 215.962 304.068 215.864 304.065 215.767L296.236 214.252C296.203 214.343 296.178 214.437 296.162 214.535L296.083 215.015Z" fill="#FFA412"/>
<path d="M296.374 213.97L304.026 215.45C303.95 215.112 303.767 214.8 303.509 214.558L297.141 213.326C296.823 213.457 296.552 213.68 296.374 213.97Z" fill="#FFA412"/>
<path d="M448.428 284.998H421.331C419.879 283.656 422.336 280.609 424.903 280.404C426.018 280.312 427.427 280.566 429.038 280.937C429.411 275.542 431.541 251.288 439.566 252.263C448.59 253.354 439.566 262.944 437.015 268.621C435.125 272.827 433.132 278.857 432.221 281.703C432.954 281.876 433.712 282.046 434.487 282.201C435.683 278.201 440.133 264.745 445.792 265.528C452.437 266.446 449.766 271.842 445.057 275.044C441.602 277.399 437.359 280.747 435.343 282.364C437.051 282.667 438.833 282.872 440.642 282.826C445.284 282.706 447.549 284.197 448.428 284.998Z" fill="#82B378"/>
<path d="M95.1172 284.017C94.0411 282.176 90.8019 277.396 86.4885 278.029C81.7882 278.718 91.6794 282.093 94.7075 284.031C94.0351 284.041 93.4567 283.983 93.0322 283.818C91.0077 283.032 87.5407 284.539 86.4321 285.068H105.705C105.572 284.566 105.225 283.746 104.327 283.148C104.011 282.937 103.374 282.908 102.554 282.976C103.699 281.505 104.495 276.803 101.305 278.013C98.9744 278.897 98.9808 281.769 99.2096 283.469C98.7136 283.553 98.2107 283.639 97.7141 283.717C96.7544 278.389 93.3607 262.776 86.4816 262.359C79.5078 261.937 92.3952 278.552 96.686 283.866C96.1364 283.938 95.607 283.992 95.1172 284.017Z" fill="#82B378"/>
<path d="M286.224 151.409C297.062 139.602 297.062 120.458 286.224 108.651C275.385 96.8434 257.812 96.8434 246.973 108.651C236.134 120.458 236.134 139.602 246.973 151.409C257.812 163.216 275.385 163.216 286.224 151.409Z" fill="#E2810E"/>
<path d="M291.318 138.977C295.211 122.826 286.349 106.295 271.523 102.054C256.698 97.8123 241.523 107.467 237.629 123.617C233.736 139.768 242.598 156.299 257.424 160.54C272.25 164.781 287.424 155.127 291.318 138.977Z" fill="#FFB93E"/>
<path d="M264.682 159.156C255.759 159.157 247.097 154.009 242.493 144.912C239.233 138.468 238.471 131.027 240.348 123.958C242.225 116.89 246.516 111.041 252.432 107.489C258.347 103.937 265.178 103.107 271.666 105.151C278.155 107.196 283.524 111.871 286.785 118.315C293.516 131.617 289.058 148.405 276.847 155.738C272.987 158.056 268.806 159.156 264.682 159.156ZM264.605 105.697C260.644 105.697 256.725 106.787 253.16 108.928C247.597 112.268 243.562 117.768 241.797 124.415C240.032 131.061 240.748 138.059 243.815 144.118C248.143 152.672 256.29 157.513 264.679 157.513C268.558 157.513 272.488 156.479 276.119 154.299C287.601 147.403 291.793 131.617 285.463 119.108C282.397 113.048 277.349 108.652 271.247 106.73C269.057 106.04 266.824 105.697 264.605 105.697Z" fill="#FFA412"/>
<path d="M271.231 136.785C271.025 136.231 270.771 135.775 270.47 135.416C270.169 135.057 269.791 134.778 269.338 134.579C268.884 134.38 268.345 134.25 267.722 134.187C267.098 134.125 266.364 134.119 265.517 134.171C264.057 134.248 262.705 134.25 261.463 134.177C260.22 134.104 259.097 133.882 258.093 133.511C257.089 133.14 256.206 132.578 255.446 131.823C254.686 131.067 254.065 130.043 253.583 128.749C253.165 127.628 252.966 126.524 252.987 125.439C253.008 124.354 253.23 123.318 253.652 122.331C254.074 121.345 254.678 120.429 255.464 119.581C256.25 118.734 257.207 117.991 258.337 117.354L256.758 113.117L259.888 111.732L261.489 116.028C262.67 115.691 263.808 115.564 264.903 115.648C265.997 115.733 267.009 116.023 267.939 116.519C268.868 117.016 269.704 117.718 270.445 118.627C271.187 119.537 271.804 120.652 272.296 121.971L266.642 124.472C266.052 122.889 265.287 121.847 264.349 121.347C263.411 120.848 262.4 120.837 261.318 121.316C260.731 121.575 260.259 121.888 259.901 122.254C259.544 122.619 259.286 123.018 259.128 123.449C258.97 123.881 258.904 124.336 258.931 124.816C258.958 125.296 259.062 125.78 259.244 126.269C259.426 126.757 259.656 127.17 259.934 127.508C260.212 127.847 260.574 128.113 261.019 128.309C261.464 128.504 262.005 128.633 262.644 128.696C263.283 128.76 264.053 128.777 264.954 128.747C266.41 128.703 267.758 128.721 268.997 128.804C270.235 128.887 271.358 129.116 272.364 129.493C273.371 129.871 274.254 130.437 275.014 131.192C275.774 131.948 276.393 132.965 276.87 134.245C277.303 135.407 277.506 136.532 277.478 137.619C277.451 138.708 277.223 139.739 276.796 140.711C276.369 141.685 275.752 142.588 274.946 143.421C274.14 144.254 273.172 144.99 272.043 145.628L273.511 149.567L270.401 150.942L268.94 147.023C267.813 147.383 266.67 147.589 265.512 147.64C264.354 147.691 263.245 147.517 262.184 147.117C261.124 146.718 260.147 146.055 259.255 145.127C258.362 144.2 257.62 142.944 257.03 141.361L262.684 138.86C263.033 139.797 263.445 140.526 263.92 141.045C264.395 141.566 264.905 141.925 265.449 142.122C265.994 142.319 266.552 142.38 267.124 142.304C267.695 142.228 268.248 142.071 268.784 141.835C269.396 141.563 269.902 141.24 270.301 140.864C270.7 140.487 271 140.078 271.2 139.636C271.399 139.194 271.5 138.73 271.502 138.245C271.503 137.76 271.413 137.274 271.231 136.785Z" fill="#FFA412"/>
<path d="M292.1 113.756C290.938 112.863 288.306 110.898 288.169 111.336C288.07 111.651 288.211 112.186 288.527 112.743C286.934 112.095 285.317 111.669 281.493 112.47C280.727 112.63 280.032 113.104 279.611 113.819C279.222 114.48 279.076 115.307 280.052 115.968C282.003 117.29 281.437 116.498 284.149 118.423C286.862 120.348 290.182 120.839 292.166 119.488L294.828 119.004L295.159 114.234C295.159 114.234 293.641 114.037 292.1 113.756Z" fill="#FFB27D"/>
<path d="M361.868 73.7427C361.868 73.7427 355.591 81.8546 347.598 78.4614C347.598 78.4614 345.878 73.931 345.854 70.5914C345.851 70.1802 345.846 69.7819 345.841 69.4033C345.798 65.6425 345.682 63.5324 345.682 63.5324C345.682 63.5324 345.684 63.5313 345.69 63.5305C346.053 63.3654 357.909 58.0629 357.899 58.5035C357.695 68.6744 361.868 73.7427 361.868 73.7427Z" fill="#FFB27D"/>
<path d="M356.708 60.9287C355.565 63.2373 351.642 67.7534 345.841 69.4033C345.798 65.6425 345.682 63.5324 345.682 63.5324C345.682 63.5324 345.684 63.5313 345.69 63.5305C346.018 63.4346 357.048 60.2483 356.708 60.9287Z" fill="#ED975D"/>
<path d="M343.199 63.1411C343.199 63.1411 356.531 66.5555 358.355 57.4779C360.179 48.4005 363.129 42.7277 354.693 40.164C346.258 37.6 343.902 40.6681 342.617 43.5366C341.332 46.4053 339.777 62.0191 343.199 63.1411Z" fill="#FFB27D"/>
<path d="M357.899 59.9516C358.081 60.0785 360.95 61.0385 366.383 49.2483C367.236 47.3975 367.817 43.3935 365.829 39.8558C363.841 36.3181 356.792 33.5365 350.935 32.3259C345.078 31.1156 343.672 34.7054 342.293 38.3136C340.845 42.1012 336.664 45.2193 336.664 45.2193C341.714 48.2926 347.797 43.8968 349.904 44.6199C352.012 45.3425 352.756 48.9608 352.914 50.1205C353.072 51.2804 353.315 52.244 355.965 51.2082C358.615 50.1724 357.164 55.299 356.739 56.2793C356.739 56.2793 356.379 58.8906 357.899 59.9516Z" fill="#A9453D"/>
<path d="M392.245 286.326H400.317C402.01 286.326 403.89 284.48 404.361 281.1C404.832 277.718 408.311 275.875 409.064 273.108C409.817 270.341 405.959 266.447 405.959 266.447L405.314 265.544L404.643 264.603L398.248 266.241C398.248 266.241 398.091 267.9 397.992 270.013C397.924 271.539 397.886 273.303 397.966 274.849C398.154 278.539 397.017 282.51 394.009 283.228C390.999 283.946 392.245 286.326 392.245 286.326Z" fill="#2C3A64"/>
<path d="M336.043 286.325H357.443C357.648 286.282 357.803 286.233 357.897 286.181C359.326 285.402 358.879 279.443 358.707 277.602C358.674 277.261 358.65 277.061 358.65 277.061C358.65 277.061 351.126 270.505 350.09 275.525C350.057 275.682 350.02 275.836 349.98 275.987V275.989C348.673 280.687 342.834 282.82 339.461 283.415C336.883 283.871 336.215 285.507 336.043 286.325Z" fill="#2C3A64"/>
<path d="M340.356 151.893C340.356 151.893 341.499 167.426 342.842 186.096C344.668 211.459 346.863 242.613 347.08 248.515C347.456 258.763 348.963 275.156 348.963 275.156C348.963 275.156 352.535 279.051 359.685 277.41C359.685 277.41 366.057 254.008 367.877 229.248C367.905 228.842 367.933 228.433 367.961 228.024C369.655 202.818 372.287 149.742 372.287 149.742L340.356 151.893Z" fill="#2B478B"/>
<path d="M340.356 151.893C340.356 151.893 341.499 167.426 342.842 186.096L367.877 229.248C367.905 228.842 367.933 228.433 367.961 228.024C369.655 202.818 372.287 149.742 372.287 149.742L340.356 151.893Z" fill="#233862"/>
<path d="M345.575 153.737C345.575 153.737 366.174 209.99 379.718 236.425C393.263 262.861 397.495 270.238 397.495 270.238C397.495 270.238 405.255 266.856 405.96 264.551C405.96 264.551 400.781 213.516 391.711 201.075C386.586 194.045 380.565 172.949 380.283 165.572C380.001 158.194 378.449 143.593 378.449 143.593L345.575 153.737Z" fill="#2B478B"/>
<path d="M392.551 143.519L392.769 147.136C392.769 147.136 390.579 153.563 396.715 156.86C396.715 156.86 399.342 158.014 399.449 155.787C399.555 153.559 399.219 154.397 399.433 151.26C399.646 148.123 398.514 145.158 396.609 144.159L395.046 142.195L392.551 143.519Z" fill="#FFB27D"/>
<path d="M394.948 146.153C392.668 146.95 392.303 146.77 392.303 146.77C392.303 146.77 381.206 124.761 380.082 122.746C378.958 120.731 356.52 98.0655 356.52 98.0655L362.286 74.6426C362.286 74.6426 387.806 110.642 390.562 115.808C395.116 124.344 397.784 144.169 397.784 144.169C397.784 144.169 396.739 145.526 394.948 146.153Z" fill="#1E3D70"/>
<path d="M336.008 107.261C336.088 112.071 336.344 117.479 336.69 122.971C336.712 123.296 336.733 123.622 336.754 123.948C336.975 127.35 337.215 130.76 337.491 134.086C337.601 135.419 337.719 136.737 337.841 138.032L337.86 138.206C337.87 138.691 337.924 139.216 337.973 139.696C339.098 152.152 340.277 161.993 340.496 162.144C340.757 162.333 341.052 162.428 341.374 162.387C344.373 161.977 353.319 162.718 360.644 160.982C366.825 159.561 372.146 156.869 377.786 153.239C378.534 152.757 380.241 151.48 380.102 150.526C379.965 149.478 379.713 147.962 379.393 146.057C378.282 139.432 376.364 128.035 375.71 114.697C375.583 112.212 375.397 109.758 375.157 107.346C374.528 101.061 373.521 95.0922 372.17 89.7897C369.658 79.9388 365.968 72.3954 361.338 69.4443C360.733 69.075 357.478 71.3314 354.489 73.4209C351.728 75.3493 348.821 75.8824 345.994 75.6132L343.506 78.6107C340.494 82.426 337.286 87.5053 336.41 94.7256C336.344 95.2588 336.288 95.8253 336.241 96.4279C335.998 99.3689 335.94 103.092 336.008 107.261Z" fill="#2A4E96"/>
<path d="M336.008 107.261C336.088 112.071 336.344 117.478 336.69 122.97C336.712 123.296 336.733 123.622 336.754 123.947C353.882 112.268 356.52 90.897 356.52 90.897C348.094 91.2995 341.4 93.4098 336.241 96.4274C335.998 99.3684 335.94 103.091 336.008 107.261Z" fill="#1E3D70"/>
<path d="M292.732 116.46C292.555 113.692 293.871 113.232 293.871 113.232C293.871 113.232 319.695 108.134 321.89 107.381C324.086 106.629 342.858 85.3561 342.858 85.3561C342.858 85.3561 350.053 76.5164 355.944 78.4685C361.064 80.1647 363.066 84.5151 363.747 88.6596C364.559 93.5984 362.469 98.5677 358.543 101.191C349.73 107.08 332.086 118.682 327.931 120.009C318.683 122.963 293.835 120.246 293.835 120.246C293.835 120.246 292.87 118.633 292.732 116.46Z" fill="#2A4E96"/>
<path opacity="0.2" d="M323.118 170.494V275.063C323.118 281.162 318.537 286.154 312.938 286.154H214.269C213.412 286.154 212.579 286.039 211.781 285.823C210.072 285.363 208.525 284.439 207.262 283.181C206.359 282.284 205.602 281.215 205.033 280.026C205.002 279.963 204.972 279.899 204.943 279.834C204.352 278.541 203.982 277.108 203.888 275.598C203.87 275.34 203.862 275.08 203.862 274.817V171.165C203.862 165.299 206.644 159.876 211.183 156.718C211.183 156.718 211.186 156.716 211.194 156.711C214.974 154.075 217.481 149.458 217.481 144.205C217.481 142.647 217.26 141.147 216.852 139.735H310.128C309.72 141.147 309.499 142.647 309.499 144.205C309.499 149.241 311.801 153.692 315.324 156.373C315.325 156.373 315.325 156.375 315.327 156.375C315.562 156.553 315.802 156.725 316.047 156.885C316.048 156.887 316.048 156.887 316.048 156.887C320.418 159.786 323.118 164.921 323.118 170.494Z" fill="#ED9F4A"/>
<path opacity="0.2" d="M323.118 170.494V275.063C323.118 280.899 318.923 285.721 313.657 286.126C313.42 286.145 313.18 286.154 312.938 286.154H269.492C263.768 286.154 259.085 281.053 259.085 274.817V171.165C259.085 165.299 261.868 159.876 266.406 156.718C270.194 154.084 272.706 149.463 272.706 144.205C272.706 142.647 272.485 141.147 272.077 139.735H310.128C309.72 141.147 309.499 142.647 309.499 144.205C309.499 148.333 311.046 152.067 313.543 154.754C314.297 155.568 315.137 156.285 316.048 156.887C320.418 159.786 323.118 164.921 323.118 170.494Z" fill="#ED9F4A"/>
<path opacity="0.6" d="M315.323 156.373C312.277 154.386 299.078 147.342 265.513 147.64C227.067 147.983 211.666 156.447 211.194 156.711C214.974 154.075 217.481 149.458 217.481 144.205C217.481 142.647 217.26 141.147 216.852 139.735H310.128C309.72 141.147 309.499 142.647 309.499 144.205C309.499 149.241 311.801 153.692 315.323 156.373Z" fill="#ED9F4A"/>
<path d="M312.241 139.005V143.748C312.241 144.216 311.891 144.597 311.463 144.597H215.519C215.089 144.597 214.739 144.216 214.739 143.748V139.005C214.739 138.538 215.089 138.155 215.519 138.155H311.463C311.891 138.155 312.241 138.539 312.241 139.005Z" fill="#2B478B"/>
<path d="M312.241 139.005V143.748C312.241 144.216 311.891 144.597 311.463 144.597H275.146C274.718 144.597 274.366 144.216 274.366 143.748V139.005C274.366 138.538 274.718 138.155 275.146 138.155H311.463C311.891 138.155 312.241 138.539 312.241 139.005Z" fill="#233862"/>
<path d="M248.229 162.487C248.229 162.487 245.756 166.28 243.489 166.333C241.222 166.385 237.773 164.575 237.773 164.575C237.773 164.575 235.691 159.521 237.103 157.543C237.103 157.543 238.519 156.866 239.999 158.062C240.253 158.268 240.512 158.528 240.766 158.862C241.125 159.332 241.528 159.6 241.956 159.741C243.574 160.277 245.494 159.016 246.212 160.233C246.631 160.941 247.087 161.472 247.463 161.846C247.906 162.276 248.229 162.487 248.229 162.487Z" fill="#F9DDBF"/>
<path d="M215.99 189.843C215.99 189.843 224.73 166.771 240.463 166.332C240.463 166.332 254.986 168.09 255.793 189.843H215.99Z" fill="#F9DDBF"/>
<path d="M236.153 167.038C236.153 167.038 242.459 168.566 244.405 167.667C244.405 167.667 244.699 164.795 242.043 165.198C240.226 165.474 239.042 164.522 238.345 164.136C237.36 163.59 235.891 165.836 236.153 167.038Z" fill="#F1A34F"/>
<path d="M241.641 162.707C241.238 163.037 239.999 158.062 239.999 158.062C240.253 158.268 240.512 158.528 240.766 158.862C241.125 159.332 241.528 159.6 241.956 159.741C241.96 159.886 242.033 162.386 241.641 162.707Z" fill="#E5C1A1"/>
<path d="M247.462 161.846C247.374 161.903 244.457 163.806 244.062 163.806C243.658 163.806 246.212 160.233 246.212 160.233C246.631 160.94 247.087 161.472 247.462 161.846Z" fill="#E5C1A1"/>
<path d="M224.529 183.399C224.367 183.248 230.714 173.218 232.462 173.145C234.211 173.072 238.138 175.342 240.982 175.635C243.825 175.928 246.582 175.049 247.119 176.88C247.657 178.711 249.137 185.203 248.229 186.242C247.321 187.281 228.019 186.647 224.529 183.399Z" fill="#E5C1A1"/>
<path opacity="0.5" d="M217.461 278.254C216.956 278.544 216.447 278.818 215.934 279.083C215.446 279.39 214.95 279.692 214.444 279.98C212.112 281.316 209.708 282.379 207.262 283.183C206.359 282.285 205.602 281.217 205.033 280.028C204.644 280.254 204.254 280.471 203.862 280.683V201.787C205.66 202.048 207.439 202.439 209.182 202.953C218.966 205.834 227.68 212.615 232.979 222.59C243.506 242.407 236.558 267.329 217.461 278.254Z" fill="#E2810E"/>
<path d="M224.078 219.482C213.55 198.678 189.534 191.11 170.437 202.578C151.34 214.046 144.393 240.208 154.92 261.011C165.447 281.815 189.463 289.384 208.56 277.915C227.658 266.447 234.605 240.286 224.078 219.482Z" fill="#E2810E"/>
<path d="M207.027 278.79C206.541 279.113 206.046 279.425 205.543 279.728C205.373 279.83 205.203 279.931 205.033 280.028C204.643 280.254 204.254 280.471 203.862 280.683C185.059 290.743 162.125 283.022 151.903 262.823C142.153 243.557 147.393 219.693 163.391 207.163C164.667 206.163 166.01 205.235 167.42 204.389C167.926 204.085 168.437 203.794 168.949 203.518C169.447 203.248 169.95 202.99 170.454 202.746C172 201.996 173.571 201.363 175.157 200.846C177.514 200.072 179.907 199.551 182.306 199.275C189.743 198.417 197.227 199.897 203.862 203.433C210.902 207.183 216.989 213.249 221.061 221.293C231.311 241.551 224.995 266.884 207.027 278.79Z" fill="#FFB93E"/>
<path d="M186.759 281.711C183.401 281.711 180.025 281.195 176.71 280.15C167.48 277.241 159.841 270.59 155.202 261.423C150.564 252.256 149.479 241.669 152.15 231.614C154.82 221.558 160.925 213.237 169.34 208.184C177.755 203.13 187.474 201.949 196.704 204.858C205.935 207.767 213.573 214.417 218.212 223.585C222.851 232.752 223.935 243.339 221.265 253.394C218.595 263.45 212.49 271.771 204.074 276.824C198.681 280.063 192.752 281.711 186.759 281.711ZM157.082 260.294C161.444 268.915 168.627 275.169 177.307 277.904C185.987 280.64 195.125 279.529 203.039 274.777C210.952 270.025 216.693 262.2 219.204 252.744C221.715 243.289 220.695 233.334 216.333 224.713C211.971 216.093 204.788 209.839 196.108 207.104C187.428 204.369 178.29 205.479 170.377 210.231C162.463 214.983 156.722 222.808 154.211 232.263C151.701 241.719 152.72 251.674 157.082 260.294Z" fill="#FFA412"/>
<path d="M204.107 246.247C204.029 246.035 203.946 245.83 203.862 245.629C203.221 244.095 202.424 242.852 201.467 241.901C200.385 240.827 199.129 240.022 197.697 239.485C196.265 238.948 194.668 238.621 192.907 238.505C191.144 238.386 189.227 238.36 187.154 238.423C185.873 238.466 184.778 238.441 183.869 238.351C182.961 238.261 182.189 238.077 181.557 237.8C180.923 237.523 180.409 237.143 180.013 236.661C179.617 236.18 179.291 235.592 179.032 234.898C178.772 234.203 178.625 233.514 178.586 232.831C178.547 232.149 178.641 231.501 178.866 230.886C179.092 230.273 179.458 229.706 179.967 229.187C180.475 228.666 181.146 228.221 181.981 227.852C183.522 227.17 184.96 227.185 186.294 227.896C187.629 228.608 188.715 230.09 189.555 232.342L197.6 228.784C196.899 226.908 196.022 225.322 194.966 224.027C193.912 222.734 192.724 221.735 191.401 221.028C190.079 220.323 188.639 219.91 187.081 219.79C185.524 219.67 183.904 219.85 182.226 220.33L179.948 214.218L175.495 216.188L177.741 222.215C176.134 223.123 174.772 224.179 173.653 225.383C172.536 226.59 171.677 227.894 171.077 229.296C170.475 230.701 170.161 232.174 170.13 233.717C170.101 235.261 170.383 236.832 170.978 238.427C171.664 240.267 172.548 241.725 173.629 242.799C174.711 243.872 175.966 244.674 177.394 245.201C178.823 245.729 180.42 246.045 182.187 246.148C183.955 246.252 185.878 246.25 187.955 246.141C189.16 246.066 190.206 246.073 191.092 246.163C191.98 246.252 192.745 246.437 193.392 246.72C194.037 247.004 194.574 247.4 195.002 247.91C195.43 248.421 195.792 249.071 196.085 249.859C196.345 250.555 196.473 251.245 196.469 251.936C196.468 252.627 196.325 253.286 196.039 253.915C195.756 254.543 195.329 255.126 194.762 255.661C194.194 256.197 193.474 256.656 192.602 257.043C191.842 257.378 191.055 257.601 190.241 257.711C189.427 257.818 188.634 257.732 187.859 257.451C187.084 257.17 186.359 256.659 185.684 255.919C185.008 255.181 184.421 254.144 183.925 252.811L175.882 256.368C176.721 258.62 177.777 260.408 179.046 261.726C180.316 263.045 181.705 263.99 183.213 264.557C184.723 265.126 186.301 265.375 187.948 265.301C189.595 265.228 191.222 264.937 192.826 264.423L194.903 270L199.328 268.042L197.24 262.439C198.846 261.531 200.223 260.484 201.37 259.299C202.432 258.202 203.262 257.022 203.862 255.754C203.91 255.651 203.957 255.549 204.003 255.444C204.609 254.061 204.933 252.595 204.972 251.046C205.011 249.499 204.723 247.898 204.107 246.247Z" fill="#FFA412"/>
<path d="M157.144 90.6285C157.265 90.1015 146.627 95.8658 146.088 96.5176C141.099 102.546 142.522 110.413 145.376 110.488C147.207 110.537 146.852 113.853 146.852 113.853L167.248 104.454C167.248 104.454 164.792 88.8537 157.144 90.6285Z" fill="#2C3A64"/>
<path d="M159.656 91.8455C159.656 91.8455 160.385 83.1904 151.507 83.1904C151.507 83.1904 154.198 83.9852 155.589 85.5752C155.589 85.5752 149.927 81.9538 143.765 87.5179C137.604 93.082 141.432 107.037 139.558 109.686C137.685 112.336 130.388 112.866 131.28 121.433C132.172 130 154.438 140.73 153.008 147.818C153.008 147.818 161.734 133.845 155.494 127.468C155.494 127.468 158.535 130.589 158.845 134.298C158.845 134.298 159.67 127.056 155.44 124.74C151.696 122.69 148.63 115.192 148.954 113.853C149.278 112.513 159.656 91.8455 159.656 91.8455Z" fill="#2C3A64"/>
<path d="M151.595 132.565C150.226 125.384 141.679 123.157 137.635 129.021C136.908 130.076 136.396 131.322 136.229 132.794C135.306 140.945 147.269 174.146 148.983 177.152C152.102 182.625 170.469 201.386 170.469 201.386L173.854 199.151C173.854 199.151 160.827 175.124 158.809 172.876C156.477 170.276 154.194 146.199 151.595 132.565Z" fill="#ED985F"/>
<path d="M169.182 199.162C169.182 199.162 174.122 195.628 175.993 195.856C177.863 196.084 183.276 197.78 183.342 198.647C183.408 199.514 177.311 200.055 176.901 200.529C176.492 201.003 172.352 204.013 170.851 203.069C169.35 202.125 169.182 199.162 169.182 199.162Z" fill="#ED985F"/>
<path d="M134.721 278.997L130.307 278.29C130.307 278.29 115.467 265.443 113.257 241.471C113.032 239.032 112.985 236.555 113.152 234.06C113.171 233.772 113.142 233.484 112.997 233.242C112.997 233.24 112.996 233.238 112.993 233.235C112.518 232.441 111.335 230.454 109.735 227.628C108.157 224.844 105.458 219.58 102.487 213.673C97.1361 203.036 90.9064 190.315 88.7692 186.262C81.9604 173.348 85.2423 164.665 85.2423 164.665C85.2423 164.665 104.237 162.619 109.441 157.659L111.316 160.807C111.316 160.807 115.431 180.654 115.237 180.746C115.44 181.421 115.645 182.108 115.855 182.808C119.103 193.728 122.838 207.376 124.875 218.493C126.02 224.747 126.626 230.197 126.3 233.909C126.188 235.183 126.325 237.14 126.636 239.557C128.475 253.801 134.721 278.997 134.721 278.997Z" fill="#2B478B"/>
<path d="M143.979 285.078H125.565C125.565 285.078 125.123 282.021 126.085 279.701C127.007 277.476 128.32 277.405 126.253 273.916C127.423 275.228 131.184 275.771 133.846 275.381C134.173 275.957 135.949 279.822 137.039 280.675C138.242 281.617 143.608 281.281 143.979 285.078Z" fill="#233862"/>
<path d="M115.854 182.807C114.246 192.471 110.447 208.554 102.487 213.673C97.1359 203.036 90.9062 190.315 88.769 186.262C81.9603 173.348 85.2421 164.665 85.2421 164.665C85.2421 164.665 104.236 162.619 109.441 157.659L111.316 160.807C111.316 160.807 115.431 180.654 115.237 180.746C115.439 181.421 115.645 182.108 115.854 182.807Z" fill="#233862"/>
<path d="M149.625 128.11C149.625 128.11 152.229 131.059 153.418 134.592C153.418 134.592 149.265 147.585 139.558 149.214C139.558 149.214 147.238 128.105 149.625 128.11Z" fill="#ED7D2B"/>
<path d="M102.94 166.156L103.002 162.404C96.1408 163.346 79.3433 153.472 79.3433 153.472C79.3433 153.472 72.1646 158.673 71.1821 173.526C70.7026 180.776 67.668 211.437 67.3325 220.592C67.2101 223.911 67.1694 226.279 67.1556 227.225C67.157 227.23 67.1568 227.232 67.1566 227.235C67.1524 227.523 67.028 227.778 66.8647 228.007C65.4449 229.972 64.2134 232.055 63.1467 234.215C52.6766 255.437 58.1518 284.272 58.1518 284.272L60.5834 283.599C60.5834 283.599 69.4363 253.706 75.2224 240.776C76.2047 238.583 77.0968 236.878 77.843 235.89C80.0186 233.011 82.3126 228.123 84.5739 222.24C88.8483 211.117 92.998 196.44 95.9574 185.076C96.1665 185.117 102.94 166.156 102.94 166.156Z" fill="#2B478B"/>
<path d="M143.094 141.117C131.877 138.313 139.043 121.142 139.693 121.444C141.247 121.099 144.661 118.126 147.714 112.32L148.127 112.71L155.016 119.29C155.016 119.29 153.424 121.849 152.084 124.356C151.038 126.318 150.148 128.252 150.289 128.916C150.843 129.391 146.086 141.867 143.094 141.117Z" fill="#FFB27D"/>
<path d="M155.016 119.291C155.016 119.291 153.423 121.847 152.084 124.356C147.801 121.48 147.796 115.703 148.126 112.71L155.016 119.291Z" fill="#ED985F"/>
<path d="M155.207 122.586C155.207 122.586 144.807 116.282 148.51 109.287C152.214 102.292 153.366 96.7668 160.163 100.496C166.96 104.225 166.826 107.698 166.111 110.361C165.396 113.023 158.008 124.046 155.207 122.586Z" fill="#FFB27D"/>
<path d="M167.868 106.281C167.391 103.175 165.943 102.879 164.933 103.086C161.092 96.1668 154.817 98.867 154.817 98.867C151.466 103.449 146.62 104.231 146.62 104.231C146.62 104.231 147.827 106.677 152.8 108.191C154.319 108.654 156.043 108.374 157.705 107.764C154.255 109.86 150.647 110.662 150.647 110.662C157.2 111.316 163.435 104.789 164.082 104.091C164.384 105.103 164.914 107.22 164.597 108.768C164.166 110.872 162.451 114.682 163.498 115.175C163.498 115.175 168.582 110.939 167.868 106.281Z" fill="#2C3A64"/>
<path d="M72.795 285.079H54.3813C54.3813 285.079 53.94 282.022 54.9016 279.703C55.8233 277.477 57.2666 276.466 56.921 273.773C58.0912 275.085 59.9981 276.555 62.6602 276.165C62.9865 276.741 64.7657 279.824 65.8554 280.677C67.0585 281.618 72.4243 281.283 72.795 285.079Z" fill="#233862"/>
<path d="M144.414 154.728C142.045 155.629 138.719 156.122 135.317 156.525C130.475 157.101 125.476 157.495 122.858 158.632C121.903 159.047 121.264 159.559 121.064 160.215C119.929 163.933 114.927 169.67 114.927 169.67C82.8636 168.08 79.3433 153.471 79.3433 153.471C100.915 126.144 137.441 118.235 137.441 118.235C137.441 118.235 140.05 117.03 146.621 122.718C151.005 126.515 150.428 127.973 150.428 127.973C150.428 127.973 151.386 152.079 144.414 154.728Z" fill="#F99746"/>
<path d="M135.317 156.526C130.475 157.102 125.476 157.496 122.857 158.634C121.787 141.214 129.334 128.11 129.334 128.11C129.334 128.11 134.257 149.934 135.317 156.526Z" fill="#ED7D2B"/>
<path d="M140.3 124.739C140.3 124.739 128.166 126.045 127.193 134.635C126.22 143.224 138.827 178.21 140.632 181.378C143.919 187.145 163.274 206.915 163.274 206.915L166.842 204.56C166.842 204.56 153.113 179.242 150.987 176.872C147.65 173.152 144.409 127.714 140.3 124.739Z" fill="#FFB27D"/>
<path d="M127.543 139.802C127.575 139.998 138.742 143.776 145.929 139.802C145.929 139.802 147.467 121.738 138.887 122.719C130.307 123.699 125.226 126.643 125.01 131.118C124.794 135.593 127.543 139.802 127.543 139.802Z" fill="#F99746"/>
<path d="M162.171 204.405C162.171 204.405 166.525 200.05 168.404 199.946C170.283 199.842 175.877 200.566 176.07 201.411C176.263 202.254 170.326 203.859 169.992 204.398C169.658 204.938 166.017 208.636 164.396 207.968C162.775 207.3 162.171 204.405 162.171 204.405Z" fill="#FFB27D"/>
<path d="M499.524 286.442H0.766394C0.454791 286.442 0.199951 286.164 0.199951 285.825V285.614C0.199951 285.275 0.454598 284.997 0.766394 284.997H499.524C499.836 284.997 500.091 285.275 500.091 285.614V285.825C500.091 286.164 499.836 286.442 499.524 286.442Z" fill="#2E3552"/>
</svg>
